<?xml version="1.0" standalone="no"?>
<!DOCTYPE svg PUBLIC "-//W3C//DTD SVG 20010904//EN"
 "http://www.w3.org/TR/2001/REC-SVG-20010904/DTD/svg10.dtd">
<svg version="1.0" xmlns="http://www.w3.org/2000/svg"
 width="596.000000pt" height="828.000000pt" viewBox="0 0 596.000000 828.000000"
 preserveAspectRatio="xMidYMid meet">
<g transform="translate(0.000000,828.000000) scale(0.100000,-0.100000)"
fill="#000000" stroke="none">
<path d="M3260 7820 c-16 -26 -32 -40 -46 -40 -12 0 -33 -9 -47 -20 -32 -25
-63 -26 -77 0 -12 22 -42 17 -33 -6 3 -8 1 -14 -5 -14 -6 0 -12 5 -14 11 -5
16 -46 -10 -54 -33 -7 -23 -61 -61 -74 -53 -5 3 -10 14 -10 23 0 21 -51 45
-74 36 -12 -5 -19 0 -23 14 -5 20 -6 20 -22 5 -15 -15 -16 -15 -19 0 -2 10
-13 17 -25 17 -12 0 -32 3 -44 6 -16 4 -29 -1 -46 -20 -24 -26 -24 -26 -38 -5
-16 23 -76 30 -88 11 -11 -18 -63 -10 -69 10 -6 24 -19 23 -32 -2 -7 -13 -21
-20 -38 -20 -39 0 -52 -17 -52 -67 0 -24 -3 -43 -6 -43 -3 0 -18 8 -32 18 -58
40 -87 37 -97 -10 -6 -24 -11 -29 -29 -24 -29 7 -54 -44 -38 -77 6 -12 11 -16
11 -9 1 6 8 12 15 12 12 0 13 -6 4 -30 -8 -24 -6 -39 6 -71 9 -23 15 -43 13
-45 -9 -10 -72 36 -72 52 0 15 -9 20 -47 22 -38 3 -49 -1 -58 -17 -5 -11 -9
-25 -8 -31 5 -18 -122 -17 -136 1 -13 17 -64 20 -70 4 -4 -11 10 -49 39 -107
15 -31 3 -47 -20 -28 -8 7 -24 10 -35 7 -11 -3 -38 0 -60 5 -22 6 -60 7 -85 4
-41 -7 -45 -10 -45 -34 0 -15 4 -33 9 -41 6 -10 2 -24 -12 -43 -24 -32 -24
-75 -1 -120 19 -37 18 -88 -1 -88 -8 0 -15 -4 -15 -9 0 -6 -23 -7 -54 -4 -39
4 -56 2 -62 -8 -16 -26 -13 -40 12 -51 13 -6 24 -18 24 -27 0 -14 2 -14 10 -1
9 13 12 12 25 -4 22 -29 19 -88 -5 -109 -11 -9 -27 -17 -35 -17 -12 0 -15 -15
-14 -77 1 -43 5 -80 10 -84 5 -3 4 -20 -1 -39 -6 -19 -10 -52 -10 -72 0 -20
-5 -40 -11 -44 -6 -3 -9 -19 -5 -35 3 -15 1 -41 -4 -56 -16 -48 -52 -295 -54
-373 -1 -41 2 -118 7 -170 8 -95 10 -137 8 -217 -1 -52 -11 -54 -99 -18 -62
25 -142 34 -142 15 0 -5 8 -10 18 -10 10 0 33 -16 52 -35 19 -19 30 -35 25
-35 -5 0 -1 -6 9 -13 15 -11 13 -12 -16 -10 -18 1 -56 5 -83 9 -43 5 -53 3
-69 -15 -18 -19 -20 -35 -18 -129 3 -117 27 -242 46 -242 7 0 22 -33 35 -72
13 -40 36 -101 52 -134 16 -34 29 -67 29 -73 0 -6 4 -11 10 -11 5 0 9 -3 7 -7
-1 -5 1 -8 5 -8 4 0 15 -10 23 -22 28 -40 50 -46 65 -18 11 21 11 27 -4 44
-10 11 -16 27 -14 37 3 16 5 16 18 2 24 -24 143 -48 154 -30 12 20 -7 114 -28
134 -17 16 -21 30 -20 78 1 33 7 67 14 76 8 8 17 50 21 92 4 42 12 97 18 122
6 25 13 56 16 70 9 55 19 85 29 92 8 5 7 8 -1 8 -8 0 -13 14 -13 35 0 28 3 33
16 28 14 -5 16 -2 11 18 -5 18 -1 28 13 37 16 10 22 8 38 -16 15 -21 23 -58
31 -157 16 -175 39 -249 108 -353 96 -146 276 -266 446 -299 15 -3 27 -9 27
-13 0 -13 -54 -23 -58 -11 -2 6 -10 11 -18 11 -11 0 -10 -5 5 -22 12 -12 23
-30 27 -40 3 -10 11 -18 17 -19 7 0 1 -5 -13 -11 l-25 -11 30 -7 c29 -7 29 -8
4 -9 -17 -1 -33 -11 -43 -26 -9 -14 -25 -25 -36 -25 -11 0 -20 -7 -20 -15 0
-11 8 -13 33 -8 25 4 30 3 20 -7 -6 -7 -22 -17 -34 -24 -13 -6 -26 -22 -29
-34 -3 -13 -8 -23 -12 -23 -5 1 -29 1 -54 1 -37 0 -45 -3 -40 -15 6 -17 -29
-39 -50 -31 -8 3 -14 -1 -14 -9 0 -8 9 -15 21 -15 31 0 13 -18 -26 -26 -19 -3
-35 -10 -35 -15 0 -20 -2 -25 -17 -41 -8 -10 -20 -16 -27 -15 -6 1 -11 -5 -11
-13 0 -8 -4 -18 -9 -21 -4 -4 -3 -16 4 -28 19 -36 21 -61 4 -54 -8 3 -26 -5
-39 -17 -20 -19 -22 -26 -13 -37 9 -11 9 -17 -3 -23 -12 -8 -12 -13 -1 -31 7
-11 11 -24 7 -27 -3 -4 -10 0 -14 7 -5 7 -14 10 -20 7 -17 -11 -13 -26 7 -26
13 0 14 -2 3 -9 -11 -7 -11 -9 0 -14 10 -4 7 -8 -8 -12 -13 -4 -23 -13 -23
-20 0 -8 -9 -16 -20 -20 -11 -3 -19 -9 -19 -13 3 -20 -3 -32 -15 -32 -23 0
-29 -20 -12 -39 9 -10 16 -23 16 -30 0 -7 12 -28 27 -48 15 -19 28 -42 29 -51
17 -126 18 -128 48 -123 17 3 46 -11 41 -20 -4 -5 -2 -9 4 -9 5 0 13 -9 16
-20 3 -11 13 -20 21 -20 8 0 14 -7 14 -15 0 -8 -6 -15 -14 -15 -24 0 -30 -22
-11 -37 11 -7 16 -13 12 -13 -3 0 14 -20 38 -45 44 -44 53 -81 17 -68 -12 4
-10 0 6 -14 12 -11 22 -25 22 -32 0 -6 9 -11 20 -11 11 0 20 -5 20 -10 0 -6
-15 -8 -39 -4 -33 5 -41 3 -50 -15 -10 -19 -8 -23 24 -38 20 -10 35 -24 35
-34 0 -10 9 -21 21 -24 30 -10 15 -18 -19 -10 -16 3 -35 17 -42 30 -9 17 -22
25 -41 25 -15 0 -31 5 -35 12 -5 8 -2 9 9 5 11 -4 17 -1 17 8 0 13 -23 20 -55
16 -6 0 -16 8 -23 19 -7 11 -8 20 -3 20 5 0 11 -5 13 -12 3 -7 11 -9 24 -4 18
7 17 9 -6 19 -14 5 -31 9 -37 8 -9 -1 -13 15 -13 54 0 54 -1 56 -22 50 -90
-27 -134 -69 -162 -153 -29 -83 -69 -164 -110 -218 -17 -23 -38 -52 -46 -64
-34 -51 -63 -80 -80 -80 -10 0 -31 -10 -47 -23 -47 -38 -199 -107 -267 -121
-35 -8 -90 -25 -122 -39 -33 -14 -93 -30 -134 -37 -85 -13 -256 -68 -346 -111
-34 -16 -69 -29 -78 -29 -9 0 -24 -4 -34 -9 -70 -36 -233 -91 -269 -91 l-43 0
0 -1230 0 -1230 1735 0 1734 0 11 21 c16 29 70 59 108 59 46 0 95 -23 115 -54
l17 -26 1120 0 1120 0 0 1335 c0 791 -4 1335 -9 1335 -8 0 -99 58 -206 131
-36 24 -51 27 -120 28 -44 1 -96 -1 -115 -4 -86 -12 -148 -14 -190 -5 -146 29
-279 43 -326 33 -108 -24 -154 -38 -154 -49 0 -18 -57 -37 -87 -30 -67 17
-265 35 -369 33 -107 -1 -116 1 -171 29 -32 17 -83 38 -115 49 -43 14 -55 22
-50 34 5 13 3 13 -12 -2 -10 -9 -32 -17 -52 -17 -41 0 -43 4 -72 142 -28 132
-55 189 -111 238 -62 55 -65 57 -105 77 -39 18 -45 30 -21 39 8 4 15 11 15 18
0 7 23 29 50 50 28 21 50 44 50 52 0 8 9 14 20 14 13 0 20 7 20 20 0 10 8 24
19 29 22 12 36 69 20 87 -7 9 -6 15 4 21 8 4 16 17 18 27 3 12 16 23 37 28 32
9 37 18 33 68 -1 14 11 57 27 95 16 39 43 117 61 175 18 58 42 130 52 160 11
30 22 69 25 85 10 58 55 229 66 249 6 12 19 30 28 41 42 47 80 182 95 343 3
36 17 83 30 111 14 27 36 97 51 157 36 157 54 191 98 200 41 7 56 28 56 73 0
28 -4 31 -57 47 -57 16 -132 53 -165 82 -16 13 -16 17 -2 44 9 17 13 41 10 56
-3 15 0 53 8 84 7 32 11 60 7 63 -3 3 -6 34 -7 68 -2 54 -11 184 -18 242 -1
11 -8 45 -14 75 -7 30 -11 78 -9 105 2 28 0 55 -5 62 -6 8 -2 19 12 33 12 12
24 33 26 48 3 14 8 30 11 36 13 20 12 61 -2 82 -8 13 -10 26 -4 35 5 8 9 24 9
36 0 12 7 28 15 37 17 16 21 66 5 66 -5 0 -10 9 -10 21 0 16 -4 19 -21 14 -23
-8 -23 0 -4 61 4 14 0 27 -11 38 -15 15 -15 19 -3 27 12 8 11 11 -4 20 -12 7
-15 17 -11 35 5 18 2 24 -10 24 -18 0 -22 25 -6 35 6 4 8 15 5 25 -3 9 -1 28
4 42 7 19 5 27 -10 36 -10 7 -28 12 -39 12 -23 0 -26 10 -7 29 10 10 8 16 -10
31 -13 10 -23 23 -23 29 0 6 -6 11 -14 11 -8 0 -16 5 -18 11 -2 7 -12 7 -31 0
-16 -6 -47 -11 -70 -11 -23 0 -58 -4 -78 -9 -33 -7 -36 -6 -32 10 3 11 12 19
20 19 8 0 11 5 8 10 -3 6 0 10 8 10 20 0 28 24 20 60 -4 25 -9 29 -26 24 -17
-5 -19 -3 -15 20 4 20 2 26 -8 22 -7 -3 -20 2 -29 10 -17 17 -20 34 -6 34 5 0
3 14 -6 31 -12 25 -20 30 -39 26 -14 -2 -27 0 -30 4 -3 5 5 9 17 9 15 0 20 3
13 10 -5 5 -20 7 -32 3 -18 -4 -22 -11 -18 -28 5 -20 1 -23 -39 -29 -34 -6
-45 -12 -45 -25 0 -10 -17 -27 -40 -40 l-40 -22 0 21 c0 11 7 37 16 58 16 36
23 70 25 120 1 13 -8 32 -20 43 -12 11 -21 24 -21 30 0 16 -47 32 -74 25 -19
-5 -26 -13 -26 -30 0 -14 5 -26 12 -28 8 -3 4 -12 -10 -26 -29 -29 -42 -28
-42 3 0 18 -5 25 -18 25 -13 0 -22 12 -30 35 -10 33 -9 35 9 30 25 -8 25 16 0
39 -22 20 -48 13 -76 -19 -11 -13 -31 -25 -45 -27 -22 -3 -25 1 -28 32 -2 19
-8 39 -13 45 -5 5 -9 17 -9 27 0 35 -43 21 -70 -22z m-993 -1053 c-1 -7 -6
-15 -12 -19 -6 -5 -5 -8 3 -8 6 0 12 -7 12 -15 0 -9 9 -15 25 -15 14 0 25 -4
25 -10 0 -5 -8 -10 -17 -10 -15 0 -15 -2 -4 -9 17 -11 41 -3 38 12 -1 7 9 12
23 12 15 0 25 -6 25 -15 0 -8 -11 -17 -25 -20 l-25 -6 22 -12 c12 -7 38 -10
57 -7 30 3 36 1 36 -15 0 -10 3 -27 7 -37 6 -16 5 -16 -10 -4 -9 7 -17 20 -17
28 0 10 -5 11 -18 4 -13 -7 -22 -7 -30 1 -15 15 -36 0 -23 -16 6 -7 8 -16 4
-19 -3 -4 2 -7 13 -7 10 0 26 -5 34 -10 13 -9 13 -11 0 -20 -8 -5 -31 -10 -50
-10 -23 0 -30 -3 -22 -9 11 -7 11 -11 -2 -24 -9 -8 -21 -17 -28 -20 -11 -3
-11 -9 0 -26 10 -17 10 -21 -1 -21 -7 0 -18 -12 -24 -27 l-11 -28 -1 32 c-1
18 -8 36 -18 41 -12 7 -14 18 -10 40 5 26 4 29 -14 25 -15 -4 -17 -9 -8 -19 6
-7 8 -18 4 -23 -3 -6 1 -21 9 -34 15 -22 14 -23 -9 -25 -14 -1 -25 3 -25 8 0
6 -8 10 -17 10 -13 0 -14 -3 -5 -12 17 -17 15 -26 -4 -24 -33 2 -23 -21 18
-44 36 -20 39 -24 22 -31 -36 -14 -54 -10 -55 14 0 21 -1 21 -9 2 -14 -34 -11
-63 8 -68 9 -3 4 -5 -13 -6 -42 -2 -64 -16 -47 -33 18 -18 15 -53 -8 -73 -15
-14 -17 -22 -9 -37 6 -11 8 -22 5 -26 -3 -3 -6 0 -6 6 0 7 -9 12 -20 12 -12 0
-17 -5 -14 -13 3 -8 -2 -19 -10 -26 -8 -7 -12 -18 -10 -26 3 -7 -3 -15 -13
-18 -14 -4 -14 -5 5 -6 27 -1 29 -21 3 -28 -18 -4 -32 -30 -35 -60 -1 -7 -10
-19 -21 -27 -19 -14 -19 -15 8 -27 l27 -12 -27 -13 c-61 -27 -301 -104 -343
-109 -25 -4 -54 -8 -66 -10 -22 -5 -44 -43 -44 -75 0 -21 -15 -27 -25 -9 -4 5
-21 9 -38 7 -34 -3 -45 18 -17 32 8 4 32 16 52 26 28 14 36 23 32 36 -6 20 6
24 23 7 18 -18 35 -1 23 21 -8 14 -6 30 5 56 17 40 12 58 -8 31 -8 -11 -17
-14 -26 -8 -11 7 -9 13 8 30 22 22 29 61 10 61 -6 0 -19 -5 -30 -10 -12 -7
-19 -7 -19 -1 0 5 9 13 21 16 11 4 25 16 30 28 5 12 16 33 24 47 17 29 20 90
5 90 -5 0 -10 5 -10 10 0 6 10 10 23 10 20 1 20 2 5 11 -25 14 -24 42 1 34 20
-6 71 13 71 26 0 4 -5 11 -10 14 -15 9 7 35 29 35 14 0 14 2 1 10 -13 8 -13
10 2 10 9 0 19 9 23 19 3 11 16 21 27 23 27 4 35 25 11 31 -17 4 -16 5 2 12
26 10 61 47 57 59 -2 5 13 6 32 3 25 -4 38 -1 50 12 20 22 20 30 -1 53 -15 17
-15 18 -1 13 21 -8 30 -32 22 -57 -5 -17 -3 -18 15 -9 12 7 21 18 21 26 0 8 9
15 19 15 11 0 21 5 23 11 2 6 25 12 51 14 43 2 81 15 46 15 -8 0 -20 10 -28
21 -11 18 -11 23 1 30 18 12 58 11 58 -1 0 -5 -11 -10 -25 -10 -14 0 -25 -4
-25 -9 0 -10 34 -21 65 -21 17 0 18 2 5 11 -11 8 -12 12 -2 16 6 2 12 14 12
25 0 18 -4 20 -47 14 l-48 -6 50 17 c44 15 47 18 23 21 -16 2 -28 8 -28 13 0
5 11 7 25 3 15 -4 25 -2 25 5 0 6 -11 11 -25 11 -17 0 -25 5 -25 18 0 12 3 13
8 4 6 -9 13 -7 30 8 11 11 30 20 42 20 22 0 27 15 8 23 -7 3 1 6 17 6 23 1 27
3 15 11 -13 9 -13 11 -1 19 17 11 41 3 38 -12z m-137 -1053 c0 -17 6 -28 19
-31 15 -4 19 -14 18 -49 0 -38 -3 -44 -22 -44 -13 0 -51 -9 -85 -20 -75 -24
-86 -25 -94 -4 -6 16 15 44 33 44 6 0 11 5 11 10 0 14 -7 13 -33 -5 -14 -9
-27 -11 -36 -6 -8 5 -21 7 -30 4 -23 -8 0 16 30 31 12 6 27 20 33 31 21 36 36
47 84 55 72 12 72 12 72 -16z m-335 -200 c13 3 26 2 29 -3 3 -5 15 -7 26 -4
15 4 20 0 20 -16 0 -11 -6 -21 -14 -21 -15 0 -30 -29 -21 -39 4 -3 26 -6 50
-6 l44 0 -26 -22 c-30 -27 -21 -29 39 -9 62 20 98 17 134 -12 26 -21 31 -30
23 -44 -8 -14 -5 -19 16 -24 37 -9 30 -21 -10 -16 -27 3 -34 1 -30 -10 4 -10
-4 -13 -35 -10 -26 3 -40 0 -40 -7 0 -7 6 -11 13 -10 26 3 38 -1 31 -12 -4 -8
1 -9 15 -4 17 5 24 2 28 -14 3 -11 12 -22 22 -25 9 -3 -4 -2 -29 1 -25 3 -48
10 -52 16 -4 7 -11 7 -21 -1 -12 -10 -16 -9 -21 3 -8 23 -28 7 -21 -16 6 -18
3 -19 -22 -12 -15 4 -38 7 -50 6 -16 -1 -23 5 -23 18 0 10 -4 19 -10 19 -5 0
-10 -14 -10 -31 0 -20 4 -29 13 -26 6 2 20 -2 30 -11 15 -14 17 -13 17 4 0 15
2 16 9 4 12 -18 4 -31 -16 -28 -9 2 -18 -3 -20 -9 -3 -8 4 -13 15 -13 11 0 22
-6 25 -12 5 -16 37 7 37 27 0 6 13 12 30 12 17 0 30 -5 30 -12 0 -6 -13 -19
-30 -28 -16 -10 -30 -22 -30 -28 0 -13 14 -11 28 3 15 15 62 -5 62 -27 0 -20
-24 -19 -45 2 -16 15 -17 15 -13 -8 2 -18 12 -25 41 -32 42 -10 51 -37 11 -37
-14 0 -23 -4 -19 -10 3 -5 15 -10 26 -10 13 0 25 -12 35 -35 8 -20 19 -33 24
-30 6 4 8 10 5 15 -3 5 12 7 32 5 21 -3 29 -2 18 1 -11 4 -26 11 -32 16 -7 6
-20 8 -28 4 -11 -4 -15 1 -15 16 0 17 3 19 12 10 19 -19 29 -14 22 13 -4 15
-2 25 4 25 6 0 13 -13 17 -30 4 -16 13 -30 20 -30 8 0 22 -16 31 -36 13 -27
14 -40 6 -59 l-11 -24 -58 22 c-107 40 -183 88 -240 153 -112 125 -169 276
-161 425 6 95 15 123 30 94 7 -11 17 -15 33 -11z m-494 -144 c10 0 19 -4 19
-10 0 -5 5 -10 12 -10 16 0 58 -40 58 -56 0 -13 -22 -24 -48 -24 -10 0 -33
-11 -53 -24 -33 -23 -35 -28 -48 -113 -10 -67 -10 -95 -2 -111 15 -28 14 -65
-1 -60 -7 3 -23 24 -35 49 -27 50 -26 108 3 229 8 36 17 75 20 88 6 28 46 71
52 54 2 -7 12 -12 23 -12z m1554 -430 c-18 -19 -17 -20 3 -20 12 0 22 -4 22
-10 0 -5 -7 -10 -16 -10 -9 0 5 -20 35 -49 28 -26 51 -53 51 -59 0 -13 -50
-62 -64 -62 -4 0 -6 10 -3 23 5 20 5 20 -7 5 -7 -10 -16 -18 -20 -18 -4 0 -19
-13 -33 -30 -13 -16 -33 -30 -44 -30 -10 0 -19 -4 -19 -9 0 -6 -20 -13 -45
-17 -25 -3 -45 -10 -45 -15 0 -5 -6 -9 -13 -9 -7 0 -27 -13 -45 -29 -21 -20
-34 -26 -39 -18 -14 23 -5 107 17 152 24 50 44 65 63 46 16 -16 37 -14 31 3
-4 11 5 17 30 21 20 4 34 11 31 15 -3 5 6 25 20 46 14 20 25 41 25 45 0 5 7 9
15 9 8 0 19 9 25 20 6 11 18 20 27 20 14 0 14 -2 -2 -20z m-335 -425 c0 -8 -4
-15 -10 -15 -5 0 -10 -4 -10 -10 0 -5 7 -10 15 -10 8 0 15 -6 15 -12 1 -18 47
-50 55 -39 3 5 1 12 -5 16 -20 12 -10 27 13 20 12 -4 31 -8 42 -9 11 -2 28 -6
38 -10 16 -8 16 -11 3 -31 -13 -20 -13 -25 0 -44 8 -11 11 -21 7 -21 -5 0 -15
9 -22 19 -8 11 -21 17 -29 13 -12 -4 -14 0 -10 16 4 12 2 25 -3 28 -5 3 -9 -4
-9 -16 0 -17 -4 -20 -20 -15 -15 5 -22 0 -30 -20 -15 -39 -13 -45 16 -45 19 0
25 4 20 15 -6 17 9 20 20 4 9 -16 -15 -29 -53 -29 -42 0 -84 -17 -81 -32 3
-20 -12 -58 -24 -58 -6 0 -6 6 2 15 7 8 10 21 7 29 -3 7 0 19 6 25 8 8 4 11
-17 11 -15 0 -43 7 -62 16 -19 9 -38 13 -42 9 -4 -4 -2 -10 5 -12 7 -2 24 -13
38 -25 20 -16 23 -23 14 -34 -17 -20 -39 -17 -39 6 0 26 -25 26 -44 -1 -16
-23 -36 -18 -36 9 0 13 -2 13 -15 -4 -13 -18 -14 -18 -15 -1 0 24 -20 11 -20
-13 0 -17 -18 -30 -42 -30 -7 0 -7 4 -1 13 5 6 10 23 11 36 0 13 8 31 17 40 8
9 25 28 36 44 11 15 27 27 35 27 8 0 14 5 14 11 0 10 37 49 74 79 18 14 18 13
11 -8 -6 -22 -5 -23 14 -13 12 7 21 16 21 21 0 6 7 10 15 10 7 0 18 6 22 14 7
12 27 23 46 25 4 1 7 -6 7 -14z m123 -380 c23 1 85 5 137 8 98 7 96 5 -25 -28
-33 -8 -69 -20 -80 -25 -31 -14 -87 -27 -119 -29 -17 -1 -32 -5 -36 -10 -9
-16 -88 -11 -94 6 -4 11 -2 13 9 9 10 -3 20 5 30 23 10 20 25 31 47 35 48 9
57 11 64 19 4 4 1 7 -7 7 -10 1 -8 5 6 16 19 14 20 13 23 -9 3 -21 8 -24 45
-22z m-264 -232 c20 -15 41 -32 46 -38 29 -31 43 -36 59 -20 14 15 14 18 -9
39 -36 34 -31 43 23 39 26 -3 54 -4 63 -4 12 0 15 -8 13 -31 -4 -30 -3 -30 14
-15 16 15 42 23 42 14 0 -2 -11 -30 -24 -62 -14 -36 -30 -59 -41 -61 -15 -2
-15 -1 -1 15 24 27 8 32 -20 6 -35 -32 -30 -42 21 -40 46 1 59 -8 28 -20 -17
-6 -17 -7 1 -21 11 -7 17 -17 13 -20 -8 -9 -88 6 -82 16 6 9 -18 20 -46 20
-10 0 -19 5 -19 11 0 5 -14 15 -31 21 -22 8 -27 13 -18 19 22 14 1 23 -51 22
-27 0 -47 3 -44 8 3 5 17 9 32 9 24 1 25 2 10 13 -15 12 -15 14 0 24 9 6 14
14 10 18 -4 4 -14 2 -23 -5 -9 -7 -18 -10 -22 -6 -4 3 2 12 11 19 15 11 17 17
7 35 -15 29 -5 28 38 -5z m-650 -758 c12 -25 28 -45 37 -45 9 0 14 -6 11 -12
-4 -15 21 -37 44 -38 21 0 68 -50 48 -51 -8 0 -3 -5 11 -11 24 -10 24 -10 5
-18 -17 -7 -17 -9 -2 -9 12 -1 17 -9 17 -30 0 -29 37 -74 88 -108 12 -9 22
-21 22 -28 0 -7 8 -15 18 -19 9 -3 29 -14 43 -23 14 -10 49 -32 78 -49 32 -20
48 -34 39 -37 -7 -3 -3 -6 9 -6 25 -1 65 -30 58 -42 -3 -4 6 -10 20 -13 16 -4
22 -11 19 -21 -4 -9 4 -19 20 -26 14 -7 26 -16 26 -21 0 -6 -3 -8 -7 -6 -49
24 -63 32 -63 39 0 11 -66 39 -90 39 -10 0 -23 7 -30 15 -7 8 -20 15 -29 15
-10 0 -39 11 -67 24 -27 13 -67 29 -89 37 -22 7 -46 17 -53 22 -14 11 -97 155
-107 188 -4 12 -29 68 -56 125 -49 103 -72 173 -52 161 6 -4 20 -27 32 -52z
m2056 -515 c15 -7 10 -9 -24 -9 -31 -1 -52 -8 -75 -27 -76 -64 -347 -159 -375
-131 -16 16 -14 27 5 27 20 0 198 53 274 82 30 12 64 29 75 39 29 25 85 34
120 19z m-657 -208 c-1 -4 -32 -51 -68 -105 -59 -89 -65 -95 -73 -75 -6 15
-11 18 -14 10 -7 -18 -33 5 -33 29 0 11 -5 19 -11 19 -10 0 -35 58 -31 73 1 4
-17 8 -40 8 -24 1 7 7 67 15 61 7 128 17 150 22 53 13 57 13 53 4z m122 -730
c99 -100 -17 -271 -140 -207 -37 19 -50 43 -50 92 0 47 29 97 72 123 47 28 84
26 118 -8z m-1960 -900 c0 -12 19 -27 60 -47 l59 -28 19 23 c23 28 43 19 40
-18 -1 -15 2 -33 6 -40 4 -7 2 -19 -4 -27 -10 -12 -6 -20 20 -43 26 -25 29
-30 15 -36 -9 -3 -26 -1 -38 6 -20 10 -21 10 -8 -5 11 -14 11 -18 -3 -23 -11
-4 -16 -18 -16 -44 0 -22 -4 -41 -9 -44 -5 -3 -7 -15 -4 -25 3 -13 -5 -29 -22
-47 -22 -22 -25 -31 -17 -48 13 -25 24 -130 16 -139 -12 -12 -75 93 -69 114 4
12 2 19 -7 19 -11 0 -13 14 -11 63 5 72 -10 61 -22 -18 -10 -61 -7 -92 11
-127 16 -31 18 -58 5 -58 -14 0 -48 98 -56 163 -4 31 -11 57 -16 57 -5 0 -9 7
-9 15 0 8 8 15 19 15 10 0 24 7 31 15 7 8 18 15 25 15 7 0 19 19 27 43 12 38
16 42 41 39 23 -2 28 1 25 15 -3 17 -8 19 -55 22 -43 2 -21 56 30 74 9 4 17
11 17 17 0 18 -110 62 -137 55 -29 -7 -30 11 -1 42 26 28 38 29 38 5z"/>
</g>
</svg>
